<svg width="123" height="120" viewBox="0 0 123 120" version="1.1" xmlns="http://www.w3.org/2000/svg" xmlns:xlink="http://www.w3.org/1999/xlink">
<title>Group</title>
<desc>Created using Figma</desc>
<g id="Canvas" transform="translate(3900 2446)">
<g id="Group">
<g id="Group">
<g id="Vector">
<use xlink:href="#path0_fill" transform="translate(-3857.31 -2411.27)" fill="#454649"/>
</g>
</g>
<g id="Group">
<g id="Vector">
<use xlink:href="#path1_fill" transform="translate(-3886.15 -2446)" fill="#454649"/>
</g>
</g>
<g id="Group">
<g id="Vector">
<use xlink:href="#path2_fill" transform="translate(-3900 -2436.65)" fill="#454649"/>
</g>
</g>
</g>
</g>
<defs>
<path id="path0_fill" d="M 7.38462 7.38462C 12.3854 2.46231 18.3854 -1.76063e-06 25.3846 -1.76063e-06C 32.3838 -1.76063e-06 38.3469 2.46231 43.2692 7.38462C 48.27 12.3854 50.8108 18.3854 50.8846 25.3846C 50.8846 25.5369 50.8846 25.6938 50.8846 25.8462C 50.8846 25.9223 50.8846 26.0377 50.8846 26.1923C 50.6538 32.8823 48.1546 38.5754 43.3846 43.2669L 43.2692 43.3846C 38.3469 48.3069 32.3838 50.7669 25.3846 50.7669C 18.3854 50.7669 12.3854 48.2677 7.38462 43.2669C 2.46231 38.3446 0 32.3815 0 25.3823C 0 18.3831 2.46231 12.3854 7.38462 7.38462ZM 25.3846 4.61538C 19.6915 4.61538 14.8085 6.61615 10.7308 10.6154L 10.6154 10.7308C 6.61615 14.8085 4.61538 19.6915 4.61538 25.3846C 4.61538 31.1538 6.61615 36.0392 10.6154 40.0408C 14.6931 44.1208 19.6154 46.1538 25.3846 46.1538C 31.0777 46.1538 35.9608 44.1162 40.0385 40.0408C 43.9615 36.12 46.0431 31.4285 46.2692 25.9615C 46.2692 25.8854 46.2692 25.8092 46.2692 25.7308C 46.2692 25.5762 46.2692 25.4608 46.2692 25.3846C 46.1954 19.6154 44.1161 14.6931 40.0385 10.6154C 36.0392 6.61615 31.1538 4.61538 25.3846 4.61538Z"/>
<path id="path1_fill" d="M 94.6154 120L 13.8462 120C 5.00769 120 0.09 115.133 0 106.297C 0 106.295 0 106.292 0 106.29C 0 106.29 0 106.29 0 106.288C 0 106.281 0 106.272 0 106.265L 0 13.9615C 0 4.91769 4.91769 0 13.8462 0L 94.6154 0C 95.8915 0 96.9231 1.03385 96.9231 2.30769L 96.9231 11.6538L 106.154 11.6538C 107.43 11.6538 108.462 12.6877 108.462 13.9615L 108.462 106.269C 108.462 107.545 107.43 108.577 106.154 108.577L 96.9231 108.577L 96.9231 117.692C 96.9231 118.968 95.8915 120 94.6154 120ZM 4.61538 106.258C 4.68231 112.569 7.53 115.385 13.8462 115.385L 92.3077 115.385L 92.3077 4.61538L 13.8462 4.61538C 7.46077 4.61538 4.61538 7.46077 4.61538 13.8462L 4.61538 106.258ZM 96.9231 103.962L 103.846 103.962L 103.846 85.3846L 96.9231 85.3846L 96.9231 103.962ZM 96.9231 80.7692L 103.846 80.7692L 103.846 62.3077L 96.9231 62.3077L 96.9231 80.7692ZM 96.9231 57.6923L 103.846 57.6923L 103.846 39.2308L 96.9231 39.2308L 96.9231 57.6923ZM 96.9231 34.6154L 103.846 34.6154L 103.846 16.2692L 96.9231 16.2692L 96.9231 34.6154Z"/>
<path id="path2_fill" d="M 27.6923 101.538L 4.61538 101.538C 2.06769 101.538 0 99.4708 0 96.9231C 0 94.3754 2.06769 92.3077 4.61538 92.3077L 27.6923 92.3077C 30.24 92.3077 32.3077 94.3754 32.3077 96.9231C 32.3077 99.4708 30.24 101.538 27.6923 101.538ZM 27.6923 78.3462L 4.61538 78.3462C 2.06769 78.3462 0 76.2785 0 73.7308C 0 71.1831 2.06769 69.1154 4.61538 69.1154L 27.6923 69.1154C 30.24 69.1154 32.3077 71.1831 32.3077 73.7308C 32.3077 76.2785 30.24 78.3462 27.6923 78.3462ZM 27.6923 55.2692L 4.61538 55.2692C 2.06769 55.2692 0 53.2015 0 50.6539C 0 48.1062 2.06769 46.0385 4.61538 46.0385L 27.6923 46.0385C 30.24 46.0385 32.3077 48.1062 32.3077 50.6539C 32.3077 53.2015 30.24 55.2692 27.6923 55.2692ZM 27.6923 32.1923L 4.61538 32.1923C 2.06769 32.1923 0 30.1246 0 27.5769C 0 25.0292 2.06769 22.9615 4.61538 22.9615L 27.6923 22.9615C 30.24 22.9615 32.3077 25.0292 32.3077 27.5769C 32.3077 30.1246 30.24 32.1923 27.6923 32.1923ZM 27.6923 9.23077L 4.61538 9.23077C 2.06769 9.23077 0 7.16308 0 4.61539C 0 2.06769 2.06769 4.40157e-07 4.61538 4.40157e-07L 27.6923 4.40157e-07C 30.24 4.40157e-07 32.3077 2.06769 32.3077 4.61539C 32.3077 7.16308 30.24 9.23077 27.6923 9.23077Z"/>
</defs>
</svg>
