<svg width="112" height="120" viewBox="0 0 112 120" version="1.1" xmlns="http://www.w3.org/2000/svg" xmlns:xlink="http://www.w3.org/1999/xlink">
<title>icon-signal</title>
<desc>Created using Figma</desc>
<g id="Canvas" transform="translate(4230 2446)">
<g id="icon-signal">
<g id="Group">
<g id="Group">
<g id="Group">
<g id="Vector">
<use xlink:href="#path0_fill" transform="translate(-4230 -2446)" fill="#454649"/>
</g>
</g>
<g id="Group">
<g id="Vector">
<use xlink:href="#path1_fill" transform="translate(-4202 -2413.81)" fill="#454649"/>
</g>
</g>
</g>
</g>
</g>
</g>
<defs>
<path id="path0_fill" d="M 92.0047 82.2055C 90.7016 82.2055 89.4011 81.7092 88.406 80.7141C 86.4183 78.7289 86.4183 75.5043 88.406 73.5166C 97.4207 64.4994 101.803 53.8966 101.803 41.1024C 101.803 28.3083 97.4207 17.7055 88.406 8.68828C 86.4183 6.70057 86.4183 3.47849 88.406 1.49078C 90.3937 -0.496928 93.6158 -0.496928 95.6035 1.49078C 106.474 12.3608 111.984 25.6869 111.984 41.1024C 111.984 56.5155 106.474 69.8415 95.6035 80.7141C 94.6109 81.7092 93.3078 82.2055 92.0047 82.2055ZM 19.9789 82.2055C 18.6758 82.2055 17.3727 81.7092 16.3801 80.7141C 5.51265 69.8466 0 56.518 0 41.1024C 0 25.6869 5.51265 12.3608 16.3801 1.49078C 18.3653 -0.496928 21.5925 -0.496928 23.5776 1.49078C 25.5654 3.47849 25.5654 6.70057 23.5776 8.68828C 14.563 17.7055 10.1803 28.3083 10.1803 41.1024C 10.1803 53.8966 14.563 64.4994 23.5776 73.5166C 25.5654 75.5043 25.5654 78.7264 23.5776 80.7141C 22.5851 81.7092 21.282 82.2055 19.9789 82.2055ZM 37.9217 64.1354C 36.6186 64.1354 35.3156 63.6391 34.323 62.644C 28.4362 56.7572 25.4508 49.5089 25.4508 41.1024C 25.4508 32.7139 28.4235 25.4324 34.2924 19.4642C 36.2649 17.4586 39.4895 17.4332 41.4899 19.4031C 43.4955 21.373 43.5235 24.5976 41.551 26.6006C 37.568 30.6549 35.6312 35.3964 35.6312 41.1024C 35.6312 46.7907 37.5578 51.4838 41.5205 55.4465C 43.5082 57.4342 43.5082 60.6563 41.5205 62.6466C 40.5279 63.6391 39.2248 64.1354 37.9217 64.1354ZM 73.9346 64.1329C 72.6163 64.1329 71.3005 63.6264 70.3028 62.6109C 68.3329 60.6054 68.3609 57.3808 70.3664 55.4109C 74.3928 51.4558 76.3525 46.7754 76.3525 41.1024C 76.3525 35.4142 74.4258 30.7211 70.4632 26.7584C 68.4754 24.7707 68.4754 21.5486 70.4632 19.5583C 72.4509 17.5681 75.6729 17.5706 77.6606 19.5583C 83.5474 25.4451 86.5328 32.6935 86.5328 41.1024C 86.5328 49.5318 83.494 56.7878 77.5003 62.6746C 76.5103 63.6493 75.2225 64.1329 73.9346 64.1329Z"/>
<path id="path1_fill" d="M 2.54405 87.8079C 2.27937 87.8079 2.01213 87.7672 1.74744 87.6781C 0.41382 87.2378 -0.311527 85.7998 0.128772 84.4636L 4.31034 71.7942C 4.32052 71.7611 4.3307 71.7306 4.34088 71.6975L 12.4495 46.3638C 12.4597 46.3256 12.4724 46.2874 12.4877 46.2492L 22.3168 15.6853C 22.1183 15.5199 21.9299 15.3468 21.7492 15.1636C 20.0695 13.4813 19.2194 11.3791 19.2194 8.90779C 19.2194 6.63503 19.9371 4.67531 21.3522 3.07446C 21.4744 2.84285 21.6296 2.63416 21.8129 2.46364C 23.5664 0.82715 25.6916 2.36893e-06 28.1272 2.36893e-06C 30.601 2.36893e-06 32.7058 0.850055 34.3805 2.52726C 36.1417 4.28846 37.035 6.43652 37.035 8.90779C 37.035 11.1755 36.2409 13.2039 34.7368 14.8047C 34.5943 15.0491 34.4187 15.268 34.2125 15.441C 34.154 15.4919 34.0904 15.5403 34.0318 15.5912L 43.7719 46.2543C 43.7846 46.29 43.7948 46.3256 43.8049 46.3612L 51.9161 71.7001C 51.9314 71.7459 51.9467 71.7917 51.9619 71.84L 55.8864 84.5069C 56.3038 85.8482 55.5505 87.276 54.2092 87.6908C 52.8629 88.1082 51.4402 87.3549 51.0253 86.0136L 47.6251 75.0825L 8.58353 75.0825L 4.96188 86.0594C 4.60812 87.1283 3.61299 87.8079 2.54405 87.8079ZM 10.2302 69.9923L 46.0141 69.9923L 39.4987 49.6316L 16.7456 49.6316L 10.2302 69.9923ZM 18.3796 44.5415L 37.8774 44.5415L 29.3641 17.7392C 28.5802 17.841 27.7684 17.8461 26.9947 17.7519L 18.3796 44.5415ZM 26.4678 12.364C 27.4248 12.8425 28.6973 12.8527 29.8197 12.3971C 30.0538 12.2368 30.288 12.0637 30.5196 11.8804C 30.6138 11.7405 30.7181 11.6158 30.8377 11.5063C 31.5987 10.7937 31.9398 9.99454 31.9398 8.91033C 31.9398 7.80577 31.5682 6.92262 30.7767 6.12856C 30.0717 5.42357 29.2267 5.09271 28.1221 5.09271C 27.1499 5.09271 26.3482 5.34722 25.633 5.88932C 25.5465 6.02421 25.4473 6.14892 25.3404 6.25836C 24.6354 6.96335 24.3045 7.80577 24.3045 8.91033C 24.3045 10.0124 24.6328 10.8573 25.3429 11.5649C 25.661 11.883 26.0275 12.1426 26.4602 12.3589C 26.4627 12.3615 26.4653 12.364 26.4678 12.364Z"/>
</defs>
</svg>
