<svg width="120" height="120" viewBox="0 0 120 120" version="1.1" xmlns="http://www.w3.org/2000/svg" xmlns:xlink="http://www.w3.org/1999/xlink">
<title>icon-private-mail</title>
<desc>Created using Figma</desc>
<g id="Canvas" transform="translate(3548 2446)">
<g id="icon-private-mail">
<g id="Group">
<g id="Group">
<g id="Vector">
<use xlink:href="#path0_fill" transform="translate(-3548 -2446)" fill="#454649"/>
</g>
</g>
<g id="Group">
<g id="Group">
<g id="Vector">
<use xlink:href="#path1_fill" transform="translate(-3469.54 -2390.62)" fill="#454649"/>
</g>
</g>
</g>
</g>
</g>
</g>
<defs>
<path id="path0_fill" d="M 117.692 120L 71.6538 120C 70.3777 120 69.3462 118.968 69.3462 117.692L 69.3462 85.3846L 13.9615 85.3846C 4.91769 85.3846 0 80.4669 0 71.5385L 0 13.8462C 0 9.37615 1.24154 5.91231 3.69231 3.54461C 6.05308 1.19308 9.47077 0 13.8462 0L 106.154 0C 110.612 0 114.106 1.23462 116.548 3.66923C 116.55 3.67154 116.552 3.67385 116.555 3.67615C 118.842 5.96308 120 9.38538 120 13.8462L 120 71.5385C 120 75.3762 119.072 78.48 117.288 80.7692L 117.692 80.7692C 118.968 80.7692 120 81.8008 120 83.0769L 120 117.692C 120 118.968 118.968 120 117.692 120ZM 73.9615 115.385L 115.385 115.385L 115.385 85.3846L 106.615 85.3846C 106.59 85.3846 106.567 85.3846 106.544 85.3846L 73.9615 85.3846L 73.9615 115.385ZM 71.6538 80.7692L 106.615 80.7692C 112.657 80.58 115.385 77.7346 115.385 71.5385L 115.385 13.8462C 115.385 11.8615 115.112 10.2138 114.572 8.91461L 74.9192 48.4638L 88.17 61.7146C 89.0723 62.6169 89.0723 64.0754 88.17 64.9777C 87.2677 65.88 85.8092 65.88 84.9069 64.9777L 71.6538 51.7246L 61.7469 61.6315C 60.8446 62.5338 59.3862 62.5338 58.4838 61.6315L 48.5769 51.7246L 19.5323 80.7692L 71.6538 80.7692ZM 5.58 8.73C 4.93846 10.0777 4.61538 11.7877 4.61538 13.8462L 4.61538 71.5385C 4.61538 77.6423 7.21615 80.5108 13.0223 80.7531L 45.3138 48.4615L 5.58 8.73ZM 50.2085 46.83L 60.1154 56.7369L 70.0223 46.83L 70.0246 46.8277L 111.36 5.60077C 109.971 4.94538 108.228 4.61538 106.154 4.61538L 13.8462 4.61538C 11.8685 4.61538 10.2092 4.91538 8.88692 5.50846L 50.2085 46.83Z"/>
<path id="path1_fill" d="M 32.3077 27.6923L 23.0769 27.6923L 23.0769 16.1538C 23.0769 14.2315 22.4077 12.6646 20.9677 11.2246C 19.6061 9.86307 18.0785 9.23077 16.1538 9.23077C 14.2292 9.23077 12.7015 9.86307 11.3423 11.2246C 11.1854 11.3815 11.0146 11.5269 10.8392 11.6585C 9.74538 12.9715 9.23077 14.4162 9.23077 16.1538L 9.23077 27.6923L 0 27.6923L 0 16.1538C 0 11.7738 1.56462 7.93615 4.64539 4.75384C 4.89231 4.5 5.16462 4.27615 5.4577 4.08692C 8.44847 1.37308 12.0438 0 16.1538 0C 20.5615 0 24.3785 1.58077 27.4962 4.69846C 30.6877 7.89231 32.3077 11.7462 32.3077 16.1538L 32.3077 27.6923Z"/>
</defs>
</svg>
